<mxfile host="app.diagrams.net" modified="2023-09-29T11:55:42.576Z" agent="Mozilla/5.0 (Windows NT 10.0; Win64; x64) AppleWebKit/537.36 (KHTML, like Gecko) Chrome/117.0.0.0 Safari/537.36" etag="AIoMnSbD79pN6Sef8PpO" version="21.7.5" type="github">
  <diagram name="Page-1" id="5f0bae14-7c28-e335-631c-24af17079c00">
    <mxGraphModel dx="1100" dy="598" grid="1" gridSize="10" guides="1" tooltips="1" connect="1" arrows="1" fold="1" page="1" pageScale="1" pageWidth="1100" pageHeight="850" background="none" math="0" shadow="0">
      <root>
        <mxCell id="0" />
        <mxCell id="1" parent="0" />
        <mxCell id="fE1Y4oyt0SwKmEaFxiSe-114" value="PM2 Clusters" style="shape=umlFrame;whiteSpace=wrap;html=1;pointerEvents=0;width=100;height=20;swimlaneFillColor=#CCFFE6;" vertex="1" parent="1">
          <mxGeometry x="450" y="10" width="340" height="170" as="geometry" />
        </mxCell>
        <mxCell id="fE1Y4oyt0SwKmEaFxiSe-113" value="Monitoring" style="shape=umlFrame;whiteSpace=wrap;html=1;pointerEvents=0;width=90;height=20;swimlaneFillColor=#CCFFE6;" vertex="1" parent="1">
          <mxGeometry x="310" y="580" width="340" height="170" as="geometry" />
        </mxCell>
        <mxCell id="fE1Y4oyt0SwKmEaFxiSe-55" value="Storage" style="shape=umlFrame;whiteSpace=wrap;html=1;pointerEvents=0;width=90;height=20;swimlaneFillColor=#CCFFE6;" vertex="1" parent="1">
          <mxGeometry x="10" y="190" width="290" height="560" as="geometry" />
        </mxCell>
        <mxCell id="fE1Y4oyt0SwKmEaFxiSe-76" value="INTERNET" style="shape=umlFrame;whiteSpace=wrap;html=1;pointerEvents=0;width=100;height=20;swimlaneFillColor=#CCFFE6;" vertex="1" parent="1">
          <mxGeometry x="10" y="10" width="430" height="170" as="geometry" />
        </mxCell>
        <mxCell id="fE1Y4oyt0SwKmEaFxiSe-37" value="EXPRESS" style="shape=umlFrame;whiteSpace=wrap;html=1;pointerEvents=0;width=100;height=20;swimlaneFillColor=#CCFFE6;" vertex="1" parent="1">
          <mxGeometry x="310" y="190" width="340" height="380" as="geometry" />
        </mxCell>
        <mxCell id="fE1Y4oyt0SwKmEaFxiSe-59" value="DNS Records" style="edgeStyle=orthogonalEdgeStyle;rounded=0;orthogonalLoop=1;jettySize=auto;html=1;exitX=0;exitY=0;exitDx=100;exitDy=55;exitPerimeter=0;entryX=0.167;entryY=0.417;entryDx=0;entryDy=0;entryPerimeter=0;" edge="1" parent="1" source="fE1Y4oyt0SwKmEaFxiSe-1" target="fE1Y4oyt0SwKmEaFxiSe-44">
          <mxGeometry relative="1" as="geometry" />
        </mxCell>
        <mxCell id="fE1Y4oyt0SwKmEaFxiSe-1" value="" style="html=1;dashed=0;whiteSpace=wrap;shape=mxgraph.dfd.externalEntity;fillColor=#eeeeee;strokeColor=#36393d;" vertex="1" parent="1">
          <mxGeometry x="40" y="50" width="100" height="100" as="geometry" />
        </mxCell>
        <mxCell id="fE1Y4oyt0SwKmEaFxiSe-2" value="Phone App" style="autosize=1;part=1;resizable=0;strokeColor=inherit;fillColor=inherit;gradientColor=inherit;" vertex="1" parent="fE1Y4oyt0SwKmEaFxiSe-1">
          <mxGeometry width="80" height="30" relative="1" as="geometry">
            <mxPoint x="-15" y="10" as="offset" />
          </mxGeometry>
        </mxCell>
        <mxCell id="fE1Y4oyt0SwKmEaFxiSe-87" value="Middleware Process Data" style="edgeStyle=orthogonalEdgeStyle;rounded=0;orthogonalLoop=1;jettySize=auto;html=1;" edge="1" parent="1" source="fE1Y4oyt0SwKmEaFxiSe-22" target="fE1Y4oyt0SwKmEaFxiSe-61">
          <mxGeometry relative="1" as="geometry" />
        </mxCell>
        <mxCell id="fE1Y4oyt0SwKmEaFxiSe-32" value="" style="html=1;dashed=0;whiteSpace=wrap;shape=mxgraph.dfd.externalEntity;fillColor=#ffff88;strokeColor=#36393d;" vertex="1" parent="1">
          <mxGeometry x="540" y="620" width="100" height="100" as="geometry" />
        </mxCell>
        <mxCell id="fE1Y4oyt0SwKmEaFxiSe-33" value="Grafana Loki" style="autosize=1;part=1;resizable=0;strokeColor=#36393d;fillColor=#cdeb8b;" vertex="1" parent="fE1Y4oyt0SwKmEaFxiSe-32">
          <mxGeometry width="90" height="30" relative="1" as="geometry">
            <mxPoint x="-20" y="10" as="offset" />
          </mxGeometry>
        </mxCell>
        <mxCell id="fE1Y4oyt0SwKmEaFxiSe-79" value="Reverse&lt;br&gt;Proxy" style="edgeStyle=orthogonalEdgeStyle;rounded=0;orthogonalLoop=1;jettySize=auto;html=1;exitX=1;exitY=0.5;exitDx=0;exitDy=0;entryX=-0.015;entryY=0.569;entryDx=0;entryDy=0;entryPerimeter=0;" edge="1" parent="1" source="fE1Y4oyt0SwKmEaFxiSe-42" target="fE1Y4oyt0SwKmEaFxiSe-22">
          <mxGeometry relative="1" as="geometry" />
        </mxCell>
        <mxCell id="fE1Y4oyt0SwKmEaFxiSe-42" value="Caddy" style="shape=ellipse;html=1;dashed=0;whiteSpace=wrap;aspect=fixed;perimeter=ellipsePerimeter;fillColor=#dae8fc;strokeColor=#6c8ebf;" vertex="1" parent="1">
          <mxGeometry x="340" y="80" width="60" height="60" as="geometry" />
        </mxCell>
        <mxCell id="fE1Y4oyt0SwKmEaFxiSe-60" style="edgeStyle=orthogonalEdgeStyle;rounded=0;orthogonalLoop=1;jettySize=auto;html=1;exitX=1;exitY=0.5;exitDx=0;exitDy=0;entryX=0;entryY=0.5;entryDx=0;entryDy=0;" edge="1" parent="1" source="fE1Y4oyt0SwKmEaFxiSe-44" target="fE1Y4oyt0SwKmEaFxiSe-42">
          <mxGeometry relative="1" as="geometry" />
        </mxCell>
        <mxCell id="fE1Y4oyt0SwKmEaFxiSe-44" value="Hostgator" style="shape=ellipse;html=1;dashed=0;whiteSpace=wrap;aspect=fixed;perimeter=ellipsePerimeter;fillColor=#dae8fc;strokeColor=#6c8ebf;" vertex="1" parent="1">
          <mxGeometry x="240" y="80" width="60" height="60" as="geometry" />
        </mxCell>
        <mxCell id="fE1Y4oyt0SwKmEaFxiSe-61" value="security" style="shape=umlFrame;whiteSpace=wrap;html=1;pointerEvents=0;width=60;height=20;swimlaneFillColor=#FFD966;" vertex="1" parent="1">
          <mxGeometry x="320" y="230" width="320" height="100" as="geometry" />
        </mxCell>
        <mxCell id="fE1Y4oyt0SwKmEaFxiSe-62" value="rate limiter" style="shape=ellipse;html=1;dashed=0;whiteSpace=wrap;aspect=fixed;perimeter=ellipsePerimeter;fillColor=#fff2cc;strokeColor=#d6b656;" vertex="1" parent="1">
          <mxGeometry x="345" y="260" width="60" height="60" as="geometry" />
        </mxCell>
        <mxCell id="fE1Y4oyt0SwKmEaFxiSe-63" value="helmet" style="shape=ellipse;html=1;dashed=0;whiteSpace=wrap;aspect=fixed;perimeter=ellipsePerimeter;fillColor=#fff2cc;strokeColor=#d6b656;" vertex="1" parent="1">
          <mxGeometry x="550" y="260" width="60" height="60" as="geometry" />
        </mxCell>
        <mxCell id="fE1Y4oyt0SwKmEaFxiSe-80" style="edgeStyle=orthogonalEdgeStyle;rounded=0;orthogonalLoop=1;jettySize=auto;html=1;entryX=1.001;entryY=0.575;entryDx=0;entryDy=0;entryPerimeter=0;" edge="1" parent="1" source="fE1Y4oyt0SwKmEaFxiSe-73" target="fE1Y4oyt0SwKmEaFxiSe-22">
          <mxGeometry relative="1" as="geometry" />
        </mxCell>
        <mxCell id="fE1Y4oyt0SwKmEaFxiSe-73" value="testing suites" style="shape=umlFrame;whiteSpace=wrap;html=1;pointerEvents=0;width=100;height=20;gradientColor=none;swimlaneFillColor=#CCFFE6;fillStyle=solid;fillColor=default;" vertex="1" parent="1">
          <mxGeometry x="660" y="190" width="290" height="290" as="geometry" />
        </mxCell>
        <mxCell id="fE1Y4oyt0SwKmEaFxiSe-81" value="cors" style="shape=ellipse;html=1;dashed=0;whiteSpace=wrap;aspect=fixed;perimeter=ellipsePerimeter;fillColor=#fff2cc;strokeColor=#d6b656;" vertex="1" parent="1">
          <mxGeometry x="485" y="260" width="60" height="60" as="geometry" />
        </mxCell>
        <mxCell id="fE1Y4oyt0SwKmEaFxiSe-82" value="JWT" style="shape=ellipse;html=1;dashed=0;whiteSpace=wrap;aspect=fixed;perimeter=ellipsePerimeter;fillColor=#fff2cc;strokeColor=#d6b656;" vertex="1" parent="1">
          <mxGeometry x="415" y="260" width="60" height="60" as="geometry" />
        </mxCell>
        <mxCell id="fE1Y4oyt0SwKmEaFxiSe-74" value="" style="html=1;dashed=0;whiteSpace=wrap;shape=mxgraph.dfd.externalEntity;fillColor=#eeeeee;strokeColor=#36393d;container=0;" vertex="1" parent="1">
          <mxGeometry x="670" y="220" width="110" height="240" as="geometry" />
        </mxCell>
        <mxCell id="fE1Y4oyt0SwKmEaFxiSe-98" value="" style="html=1;dashed=0;whiteSpace=wrap;shape=mxgraph.dfd.externalEntity;fillColor=#eeeeee;strokeColor=#36393d;" vertex="1" parent="1">
          <mxGeometry x="800" y="220" width="130" height="240" as="geometry" />
        </mxCell>
        <mxCell id="fE1Y4oyt0SwKmEaFxiSe-99" value="js" style="autosize=1;part=1;resizable=0;strokeColor=#36393d;fillColor=#cdeb8b;" vertex="1" parent="fE1Y4oyt0SwKmEaFxiSe-98">
          <mxGeometry width="30" height="30" relative="1" as="geometry">
            <mxPoint x="10" y="10" as="offset" />
          </mxGeometry>
        </mxCell>
        <mxCell id="fE1Y4oyt0SwKmEaFxiSe-100" value="" style="group;fillColor=#fff2cc;strokeColor=#d6b656;" vertex="1" connectable="0" parent="1">
          <mxGeometry x="845" y="250" width="60" height="200" as="geometry" />
        </mxCell>
        <mxCell id="fE1Y4oyt0SwKmEaFxiSe-93" value="Supertest" style="shape=ellipse;html=1;dashed=0;whiteSpace=wrap;aspect=fixed;perimeter=ellipsePerimeter;fillColor=#cce5ff;strokeColor=#36393d;" vertex="1" parent="fE1Y4oyt0SwKmEaFxiSe-100">
          <mxGeometry y="70" width="60" height="60" as="geometry" />
        </mxCell>
        <mxCell id="fE1Y4oyt0SwKmEaFxiSe-94" value="Mocha" style="shape=ellipse;html=1;dashed=0;whiteSpace=wrap;aspect=fixed;perimeter=ellipsePerimeter;fillColor=#cce5ff;strokeColor=#36393d;" vertex="1" parent="fE1Y4oyt0SwKmEaFxiSe-100">
          <mxGeometry width="60" height="60" as="geometry" />
        </mxCell>
        <mxCell id="fE1Y4oyt0SwKmEaFxiSe-95" value="Chai" style="shape=ellipse;html=1;dashed=0;whiteSpace=wrap;aspect=fixed;perimeter=ellipsePerimeter;fillColor=#cce5ff;strokeColor=#36393d;" vertex="1" parent="fE1Y4oyt0SwKmEaFxiSe-100">
          <mxGeometry y="140" width="60" height="60" as="geometry" />
        </mxCell>
        <mxCell id="fE1Y4oyt0SwKmEaFxiSe-106" value="" style="html=1;dashed=0;whiteSpace=wrap;shape=mxgraph.dfd.externalEntity;fillColor=#ffff88;strokeColor=#36393d;" vertex="1" parent="1">
          <mxGeometry x="90" y="230" width="110" height="150" as="geometry" />
        </mxCell>
        <mxCell id="fE1Y4oyt0SwKmEaFxiSe-107" value="Docker" style="autosize=1;part=1;resizable=0;strokeColor=#36393d;fillColor=#cdeb8b;" vertex="1" parent="fE1Y4oyt0SwKmEaFxiSe-106">
          <mxGeometry width="60" height="30" relative="1" as="geometry">
            <mxPoint x="-5" y="10" as="offset" />
          </mxGeometry>
        </mxCell>
        <mxCell id="fE1Y4oyt0SwKmEaFxiSe-6" value="Redis" style="shape=cylinder;whiteSpace=wrap;html=1;boundedLbl=1;backgroundOutline=1;fillColor=#f8cecc;strokeColor=#b85450;" vertex="1" parent="fE1Y4oyt0SwKmEaFxiSe-106">
          <mxGeometry x="30" y="50" width="60" height="80" as="geometry" />
        </mxCell>
        <mxCell id="fE1Y4oyt0SwKmEaFxiSe-69" value="Store IP/usage data" style="edgeStyle=orthogonalEdgeStyle;rounded=0;orthogonalLoop=1;jettySize=auto;html=1;exitX=0;exitY=0.5;exitDx=0;exitDy=0;entryX=0.5;entryY=0;entryDx=0;entryDy=0;" edge="1" parent="1" source="fE1Y4oyt0SwKmEaFxiSe-62" target="fE1Y4oyt0SwKmEaFxiSe-6">
          <mxGeometry relative="1" as="geometry" />
        </mxCell>
        <mxCell id="fE1Y4oyt0SwKmEaFxiSe-110" value="" style="html=1;dashed=0;whiteSpace=wrap;shape=mxgraph.dfd.externalEntity;fillColor=#ffff88;strokeColor=#36393d;" vertex="1" parent="1">
          <mxGeometry x="90" y="405" width="110" height="150" as="geometry" />
        </mxCell>
        <mxCell id="fE1Y4oyt0SwKmEaFxiSe-111" value="Web Server" style="autosize=1;part=1;resizable=0;strokeColor=#36393d;fillColor=#cdeb8b;" vertex="1" parent="fE1Y4oyt0SwKmEaFxiSe-110">
          <mxGeometry width="90" height="30" relative="1" as="geometry">
            <mxPoint x="-20" y="10" as="offset" />
          </mxGeometry>
        </mxCell>
        <mxCell id="fE1Y4oyt0SwKmEaFxiSe-5" value="SQL Server" style="shape=cylinder;whiteSpace=wrap;html=1;boundedLbl=1;backgroundOutline=1;fillColor=#f8cecc;strokeColor=#b85450;" vertex="1" parent="fE1Y4oyt0SwKmEaFxiSe-110">
          <mxGeometry x="30" y="45" width="60" height="80" as="geometry" />
        </mxCell>
        <mxCell id="fE1Y4oyt0SwKmEaFxiSe-115" value="" style="group" vertex="1" connectable="0" parent="1">
          <mxGeometry x="510" y="40" width="230" height="120" as="geometry" />
        </mxCell>
        <mxCell id="fE1Y4oyt0SwKmEaFxiSe-22" value="environments via diff. ports" style="shape=umlFrame;whiteSpace=wrap;html=1;pointerEvents=0;width=170;height=20;swimlaneFillColor=#FFD966;" vertex="1" parent="fE1Y4oyt0SwKmEaFxiSe-115">
          <mxGeometry width="230" height="120" as="geometry" />
        </mxCell>
        <mxCell id="fE1Y4oyt0SwKmEaFxiSe-25" value="dev" style="shape=ellipse;html=1;dashed=0;whiteSpace=wrap;aspect=fixed;perimeter=ellipsePerimeter;fillColor=#d5e8d4;strokeColor=#82b366;" vertex="1" parent="fE1Y4oyt0SwKmEaFxiSe-115">
          <mxGeometry x="85" y="40" width="60" height="60" as="geometry" />
        </mxCell>
        <mxCell id="fE1Y4oyt0SwKmEaFxiSe-26" value="staging" style="shape=ellipse;html=1;dashed=0;whiteSpace=wrap;aspect=fixed;perimeter=ellipsePerimeter;fillColor=#d5e8d4;strokeColor=#82b366;" vertex="1" parent="fE1Y4oyt0SwKmEaFxiSe-115">
          <mxGeometry x="155" y="40" width="60" height="60" as="geometry" />
        </mxCell>
        <mxCell id="fE1Y4oyt0SwKmEaFxiSe-8" value="production" style="shape=ellipse;html=1;dashed=0;whiteSpace=wrap;aspect=fixed;perimeter=ellipsePerimeter;fillColor=#d5e8d4;strokeColor=#82b366;" vertex="1" parent="fE1Y4oyt0SwKmEaFxiSe-115">
          <mxGeometry x="15" y="40" width="60" height="60" as="geometry" />
        </mxCell>
        <mxCell id="fE1Y4oyt0SwKmEaFxiSe-117" value="" style="html=1;dashed=0;whiteSpace=wrap;shape=mxgraph.dfd.externalEntity;fillColor=#ffff88;strokeColor=#36393d;" vertex="1" parent="1">
          <mxGeometry x="405" y="620" width="100" height="100" as="geometry" />
        </mxCell>
        <mxCell id="fE1Y4oyt0SwKmEaFxiSe-118" value="PM2 monit" style="autosize=1;part=1;resizable=0;strokeColor=#36393d;fillColor=#cdeb8b;" vertex="1" parent="fE1Y4oyt0SwKmEaFxiSe-117">
          <mxGeometry width="80" height="30" relative="1" as="geometry">
            <mxPoint x="-15" y="10" as="offset" />
          </mxGeometry>
        </mxCell>
        <mxCell id="fE1Y4oyt0SwKmEaFxiSe-120" value="" style="group" vertex="1" connectable="0" parent="1">
          <mxGeometry x="555" y="460" width="85" height="100" as="geometry" />
        </mxCell>
        <mxCell id="fE1Y4oyt0SwKmEaFxiSe-119" value="Logging" style="shape=umlFrame;whiteSpace=wrap;html=1;pointerEvents=0;width=60;height=20;swimlaneFillColor=#FFD966;" vertex="1" parent="fE1Y4oyt0SwKmEaFxiSe-120">
          <mxGeometry width="85" height="100" as="geometry" />
        </mxCell>
        <mxCell id="fE1Y4oyt0SwKmEaFxiSe-39" value="pino" style="shape=ellipse;html=1;dashed=0;whiteSpace=wrap;aspect=fixed;perimeter=ellipsePerimeter;fillColor=#fff2cc;strokeColor=#d6b656;" vertex="1" parent="fE1Y4oyt0SwKmEaFxiSe-120">
          <mxGeometry x="10" y="30" width="60" height="60" as="geometry" />
        </mxCell>
        <mxCell id="fE1Y4oyt0SwKmEaFxiSe-121" value="visualize&lt;br&gt;data" style="edgeStyle=orthogonalEdgeStyle;rounded=0;orthogonalLoop=1;jettySize=auto;html=1;exitX=0.5;exitY=1;exitDx=0;exitDy=0;entryX=0.553;entryY=0.012;entryDx=0;entryDy=0;entryPerimeter=0;" edge="1" parent="1" source="fE1Y4oyt0SwKmEaFxiSe-39" target="fE1Y4oyt0SwKmEaFxiSe-32">
          <mxGeometry relative="1" as="geometry" />
        </mxCell>
        <mxCell id="fE1Y4oyt0SwKmEaFxiSe-122" value="receive&lt;br&gt;process data" style="edgeStyle=orthogonalEdgeStyle;rounded=0;orthogonalLoop=1;jettySize=auto;html=1;entryX=0.75;entryY=0;entryDx=0;entryDy=0;" edge="1" parent="1" source="fE1Y4oyt0SwKmEaFxiSe-37" target="fE1Y4oyt0SwKmEaFxiSe-118">
          <mxGeometry relative="1" as="geometry" />
        </mxCell>
        <mxCell id="fE1Y4oyt0SwKmEaFxiSe-123" value="data fetch/store" style="shape=umlFrame;whiteSpace=wrap;html=1;pointerEvents=0;width=110;height=20;swimlaneFillColor=#FFD966;" vertex="1" parent="1">
          <mxGeometry x="320" y="340" width="170" height="100" as="geometry" />
        </mxCell>
        <mxCell id="fE1Y4oyt0SwKmEaFxiSe-124" value="" style="html=1;dashed=0;whiteSpace=wrap;shape=mxgraph.dfd.externalEntity;fillColor=#ffff88;strokeColor=#36393d;" vertex="1" parent="1">
          <mxGeometry x="90" y="590" width="110" height="150" as="geometry" />
        </mxCell>
        <mxCell id="fE1Y4oyt0SwKmEaFxiSe-125" value="Web Server" style="autosize=1;part=1;resizable=0;strokeColor=#36393d;fillColor=#cdeb8b;" vertex="1" parent="fE1Y4oyt0SwKmEaFxiSe-124">
          <mxGeometry width="90" height="30" relative="1" as="geometry">
            <mxPoint x="-20" y="10" as="offset" />
          </mxGeometry>
        </mxCell>
        <mxCell id="fE1Y4oyt0SwKmEaFxiSe-126" value="Filesystem" style="shape=cylinder;whiteSpace=wrap;html=1;boundedLbl=1;backgroundOutline=1;fillColor=#f8cecc;strokeColor=#b85450;" vertex="1" parent="fE1Y4oyt0SwKmEaFxiSe-124">
          <mxGeometry x="30" y="45" width="60" height="80" as="geometry" />
        </mxCell>
        <mxCell id="fE1Y4oyt0SwKmEaFxiSe-129" value="cached&lt;br&gt;data" style="edgeStyle=orthogonalEdgeStyle;rounded=0;orthogonalLoop=1;jettySize=auto;html=1;exitX=0;exitY=0.5;exitDx=0;exitDy=0;entryX=1;entryY=0.5;entryDx=0;entryDy=0;" edge="1" parent="1" source="fE1Y4oyt0SwKmEaFxiSe-128" target="fE1Y4oyt0SwKmEaFxiSe-6">
          <mxGeometry relative="1" as="geometry" />
        </mxCell>
        <mxCell id="fE1Y4oyt0SwKmEaFxiSe-128" value="ioredis" style="shape=ellipse;html=1;dashed=0;whiteSpace=wrap;aspect=fixed;perimeter=ellipsePerimeter;fillColor=#fff2cc;strokeColor=#d6b656;" vertex="1" parent="1">
          <mxGeometry x="345" y="370" width="60" height="60" as="geometry" />
        </mxCell>
        <mxCell id="fE1Y4oyt0SwKmEaFxiSe-131" value="permanent&lt;br&gt;data" style="edgeStyle=orthogonalEdgeStyle;rounded=0;orthogonalLoop=1;jettySize=auto;html=1;exitX=0.5;exitY=1;exitDx=0;exitDy=0;entryX=0;entryY=0;entryDx=110;entryDy=45;entryPerimeter=0;" edge="1" parent="1" source="fE1Y4oyt0SwKmEaFxiSe-130" target="fE1Y4oyt0SwKmEaFxiSe-110">
          <mxGeometry relative="1" as="geometry">
            <Array as="points">
              <mxPoint x="445" y="450" />
            </Array>
          </mxGeometry>
        </mxCell>
        <mxCell id="fE1Y4oyt0SwKmEaFxiSe-130" value="mssql" style="shape=ellipse;html=1;dashed=0;whiteSpace=wrap;aspect=fixed;perimeter=ellipsePerimeter;fillColor=#fff2cc;strokeColor=#d6b656;" vertex="1" parent="1">
          <mxGeometry x="415" y="370" width="60" height="60" as="geometry" />
        </mxCell>
        <mxCell id="fE1Y4oyt0SwKmEaFxiSe-140" style="edgeStyle=orthogonalEdgeStyle;rounded=0;orthogonalLoop=1;jettySize=auto;html=1;exitX=0.812;exitY=1.001;exitDx=0;exitDy=0;entryX=0.5;entryY=0;entryDx=0;entryDy=0;exitPerimeter=0;" edge="1" parent="1" source="fE1Y4oyt0SwKmEaFxiSe-61" target="fE1Y4oyt0SwKmEaFxiSe-138">
          <mxGeometry relative="1" as="geometry" />
        </mxCell>
        <mxCell id="fE1Y4oyt0SwKmEaFxiSe-146" style="edgeStyle=orthogonalEdgeStyle;rounded=0;orthogonalLoop=1;jettySize=auto;html=1;exitX=0.5;exitY=1;exitDx=0;exitDy=0;entryX=1.004;entryY=0.479;entryDx=0;entryDy=0;entryPerimeter=0;" edge="1" parent="1" source="fE1Y4oyt0SwKmEaFxiSe-138" target="fE1Y4oyt0SwKmEaFxiSe-133">
          <mxGeometry relative="1" as="geometry">
            <Array as="points">
              <mxPoint x="550" y="440" />
              <mxPoint x="550" y="508" />
            </Array>
          </mxGeometry>
        </mxCell>
        <mxCell id="fE1Y4oyt0SwKmEaFxiSe-147" style="edgeStyle=orthogonalEdgeStyle;rounded=0;orthogonalLoop=1;jettySize=auto;html=1;exitX=1;exitY=0.5;exitDx=0;exitDy=0;" edge="1" parent="1" source="fE1Y4oyt0SwKmEaFxiSe-138" target="fE1Y4oyt0SwKmEaFxiSe-119">
          <mxGeometry relative="1" as="geometry">
            <Array as="points">
              <mxPoint x="620" y="398" />
            </Array>
          </mxGeometry>
        </mxCell>
        <mxCell id="fE1Y4oyt0SwKmEaFxiSe-148" style="edgeStyle=orthogonalEdgeStyle;rounded=0;orthogonalLoop=1;jettySize=auto;html=1;exitX=0;exitY=0.5;exitDx=0;exitDy=0;entryX=0.992;entryY=0.268;entryDx=0;entryDy=0;entryPerimeter=0;" edge="1" parent="1" source="fE1Y4oyt0SwKmEaFxiSe-138" target="fE1Y4oyt0SwKmEaFxiSe-123">
          <mxGeometry relative="1" as="geometry" />
        </mxCell>
        <mxCell id="fE1Y4oyt0SwKmEaFxiSe-138" value="ENDPOINT" style="shape=rhombus;html=1;dashed=0;whiteSpace=wrap;perimeter=rhombusPerimeter;fillColor=#ffcc99;strokeColor=#36393d;" vertex="1" parent="1">
          <mxGeometry x="520" y="355" width="90" height="85" as="geometry" />
        </mxCell>
        <mxCell id="fE1Y4oyt0SwKmEaFxiSe-133" value="Image processing" style="shape=umlFrame;whiteSpace=wrap;html=1;pointerEvents=0;width=120;height=20;swimlaneFillColor=#FFD966;" vertex="1" parent="1">
          <mxGeometry x="320" y="460" width="170" height="100" as="geometry" />
        </mxCell>
        <mxCell id="fE1Y4oyt0SwKmEaFxiSe-134" value="sharp" style="shape=ellipse;html=1;dashed=0;whiteSpace=wrap;aspect=fixed;perimeter=ellipsePerimeter;fillColor=#fff2cc;strokeColor=#d6b656;" vertex="1" parent="1">
          <mxGeometry x="345.88235294117646" y="490" width="60" height="60" as="geometry" />
        </mxCell>
        <mxCell id="fE1Y4oyt0SwKmEaFxiSe-135" value="multer" style="shape=ellipse;html=1;dashed=0;whiteSpace=wrap;aspect=fixed;perimeter=ellipsePerimeter;fillColor=#fff2cc;strokeColor=#d6b656;" vertex="1" parent="1">
          <mxGeometry x="415.00235294117647" y="490" width="60" height="60" as="geometry" />
        </mxCell>
        <mxCell id="fE1Y4oyt0SwKmEaFxiSe-136" value="320" style="edgeStyle=orthogonalEdgeStyle;rounded=0;orthogonalLoop=1;jettySize=auto;html=1;exitX=0;exitY=0.5;exitDx=0;exitDy=0;entryX=0;entryY=0;entryDx=110;entryDy=45;entryPerimeter=0;" edge="1" parent="1" source="fE1Y4oyt0SwKmEaFxiSe-134" target="fE1Y4oyt0SwKmEaFxiSe-124">
          <mxGeometry relative="1" as="geometry" />
        </mxCell>
        <mxCell id="fE1Y4oyt0SwKmEaFxiSe-137" value="1200" style="edgeStyle=orthogonalEdgeStyle;rounded=0;orthogonalLoop=1;jettySize=auto;html=1;exitX=0;exitY=1;exitDx=0;exitDy=0;entryX=0;entryY=0;entryDx=110;entryDy=80;entryPerimeter=0;" edge="1" parent="1" source="fE1Y4oyt0SwKmEaFxiSe-134" target="fE1Y4oyt0SwKmEaFxiSe-124">
          <mxGeometry relative="1" as="geometry">
            <Array as="points">
              <mxPoint x="290" y="541" />
              <mxPoint x="290" y="670" />
            </Array>
          </mxGeometry>
        </mxCell>
        <mxCell id="fE1Y4oyt0SwKmEaFxiSe-75" value="python" style="autosize=1;part=1;resizable=0;strokeColor=#36393d;fillColor=#cdeb8b;align=center;verticalAlign=middle;labelPosition=center;verticalLabelPosition=middle;horizontal=1;" vertex="1" parent="1">
          <mxGeometry x="665" y="230" width="60" height="30" as="geometry">
            <mxPoint x="5" y="10" as="offset" />
          </mxGeometry>
        </mxCell>
        <mxCell id="fE1Y4oyt0SwKmEaFxiSe-149" value="" style="group;fillColor=#fff2cc;strokeColor=#d6b656;" vertex="1" connectable="0" parent="1">
          <mxGeometry x="695" y="270" width="60" height="155" as="geometry" />
        </mxCell>
        <mxCell id="fE1Y4oyt0SwKmEaFxiSe-103" value="Locust" style="shape=ellipse;html=1;dashed=0;whiteSpace=wrap;aspect=fixed;perimeter=ellipsePerimeter;fillColor=#cce5ff;strokeColor=#36393d;container=0;" vertex="1" parent="fE1Y4oyt0SwKmEaFxiSe-149">
          <mxGeometry width="60" height="60" as="geometry" />
        </mxCell>
        <mxCell id="fE1Y4oyt0SwKmEaFxiSe-105" value="venv" style="shape=ellipse;html=1;dashed=0;whiteSpace=wrap;aspect=fixed;perimeter=ellipsePerimeter;fillColor=#cce5ff;strokeColor=#36393d;container=0;" vertex="1" parent="fE1Y4oyt0SwKmEaFxiSe-149">
          <mxGeometry y="95" width="60" height="60" as="geometry" />
        </mxCell>
      </root>
    </mxGraphModel>
  </diagram>
</mxfile>
